<?xml version="1.0" encoding="UTF-8" standalone="no"?>
<!-- Created with Inkscape (http://www.inkscape.org/) -->

<svg
   width="64"
   height="64"
   viewBox="0 0 64 64"
   version="1.1"
   id="svg1"
   inkscape:version="1.4.3 (0d15f75, 2025-12-25)"
   sodipodi:docname="favicon.svg"
   xmlns:inkscape="http://www.inkscape.org/namespaces/inkscape"
   xmlns:sodipodi="http://sodipodi.sourceforge.net/DTD/sodipodi-0.dtd"
   xmlns="http://www.w3.org/2000/svg"
   xmlns:svg="http://www.w3.org/2000/svg">
  <sodipodi:namedview
     id="namedview1"
     pagecolor="#505050"
     bordercolor="#ffffff"
     borderopacity="1"
     inkscape:showpageshadow="0"
     inkscape:pageopacity="0"
     inkscape:pagecheckerboard="1"
     inkscape:deskcolor="#505050"
     inkscape:document-units="px"
     inkscape:zoom="4.584409"
     inkscape:cx="-120.29904"
     inkscape:cy="100.88541"
     inkscape:window-width="5120"
     inkscape:window-height="1369"
     inkscape:window-x="-8"
     inkscape:window-y="-8"
     inkscape:window-maximized="1"
     inkscape:current-layer="layer1" />
  <defs
     id="defs1" />
  <g
     inkscape:label="Layer 1"
     inkscape:groupmode="layer"
     id="layer1">
    <path
       id="path18-1"
       style="fill:#ffffff;fill-opacity:1;stroke-width:0.595729"
       d="m 36.325473,40.749795 c -1.849668,0.02777 -3.71009,0.628657 -5.294572,1.653005 -2.27791,1.473054 -3.893042,3.836432 -6.403463,4.973165 -1.204864,0.553582 -2.523683,0.875277 -3.850131,0.912332 -0.774047,1.384105 -1.54808,2.768219 -2.322126,4.15231 2.28934,0.129363 4.630372,0.218852 6.912942,-0.118814 1.804636,-0.305612 3.426028,-1.287549 4.799352,-2.435796 1.133283,-0.931265 2.139869,-2.000388 3.15413,-3.054899 1.441882,-1.417771 3.38795,-2.509244 5.465782,-2.377295 2.245112,0.119795 4.207977,1.463308 5.764887,2.992171 1.507785,1.477736 2.750159,3.202917 3.853034,4.996572 H 56.36543 C 53.553032,47.50493 49.238659,45.043324 44.260458,42.531203 42.505234,41.732322 40.659904,41.061005 38.737724,40.822141 37.936733,40.73923 37.1299,40.726423 36.325473,40.749793 Z M 31.639651,12.824842 c -2.756813,4.316325 -5.382204,8.711876 -8.04611,13.084158 -5.331654,8.814246 -10.650288,17.635838 -15.919538,26.485097 2.485619,0.03354 4.971548,0.03381 7.457349,0.04447 4.300952,-7.508089 8.747027,-14.935964 13.188019,-22.362257 1.084126,-1.812841 2.176103,-3.620674 3.267815,-5.429053 0.624337,0.6721 1.018245,1.518474 1.523742,2.277586 1.76747,2.886704 5.145037,7.189039 6.884813,10.09255 3.350785,0.511818 6.954102,2.75472 9.788338,4.609846 -4.156828,-7.190476 -9.765065,-15.524012 -14.188095,-22.547741 -1.309996,-2.123765 -2.579136,-4.270279 -3.840533,-6.423957 -0.03857,0.05645 -0.07715,0.112898 -0.115856,0.169249 z" />
  </g>
</svg>
