<?xml version="1.0" encoding="UTF-8" standalone="no"?>
<!-- Created with Inkscape (http://www.inkscape.org/) -->

<svg
   width="512"
   height="512"
   viewBox="0 0 512 512"
   version="1.1"
   id="svg1"
   xml:space="preserve"
   inkscape:version="1.4.3 (0d15f75, 2025-12-25)"
   sodipodi:docname="logo2.svg"
   xmlns:inkscape="http://www.inkscape.org/namespaces/inkscape"
   xmlns:sodipodi="http://sodipodi.sourceforge.net/DTD/sodipodi-0.dtd"
   xmlns="http://www.w3.org/2000/svg"
   xmlns:svg="http://www.w3.org/2000/svg"><sodipodi:namedview
     id="namedview1"
     pagecolor="#505050"
     bordercolor="#ffffff"
     borderopacity="1"
     inkscape:showpageshadow="0"
     inkscape:pageopacity="0"
     inkscape:pagecheckerboard="1"
     inkscape:deskcolor="#505050"
     inkscape:document-units="mm"
     inkscape:zoom="1.4702524"
     inkscape:cx="-43.870019"
     inkscape:cy="281.92438"
     inkscape:window-width="5120"
     inkscape:window-height="1369"
     inkscape:window-x="-8"
     inkscape:window-y="-8"
     inkscape:window-maximized="1"
     inkscape:current-layer="layer1" /><defs
     id="defs1" /><g
     inkscape:label="Layer 1"
     inkscape:groupmode="layer"
     id="layer1"><path
       id="path14"
       style="fill:#ffffff;fill-opacity:1;stroke-width:5.99258"
       d="m 253.34713,48.94557 c -27.73132,43.418696 -54.1406,87.63435 -80.93726,131.61592 -53.63208,88.66405 -107.133163,177.40206 -160.137495,266.41831 25.003285,0.33698 50.009676,0.3399 75.014791,0.44753 43.264064,-75.5253 87.987904,-150.24354 132.660654,-224.94599 10.90541,-18.23571 21.88979,-36.42101 32.87154,-54.61183 6.28033,6.76077 10.24269,15.2746 15.32758,22.91065 17.77932,29.03786 51.75481,72.31582 69.25559,101.52277 33.70616,5.14848 69.95259,27.7102 98.46271,46.37129 C 394.05093,266.34382 337.63662,182.51526 293.14457,111.8623 279.96712,90.498961 267.2006,68.906787 254.51194,47.242544 c -0.38799,0.567813 -0.776,1.135666 -1.16539,1.702512 z"
       sodipodi:nodetypes="scccsccccccss" /><path
       id="path18"
       style="fill:#ffffff;fill-opacity:0.628454;stroke-width:5.99258"
       d="m 300.48268,329.84767 c -18.6062,0.27892 -37.3205,6.32377 -53.25911,16.62792 -22.91391,14.81767 -39.16079,38.59139 -64.41356,50.02596 -12.11993,5.5686 -25.38618,8.80458 -38.72916,9.17725 -7.78627,13.92301 -15.57242,27.84603 -23.35867,41.76888 23.02889,1.30136 46.57775,2.20152 69.5385,-1.19517 18.15317,-3.07421 34.46304,-12.95173 48.27756,-24.50211 11.39988,-9.36775 21.52535,-20.1222 31.72796,-30.72979 14.50413,-14.26158 34.07999,-25.2409 54.98128,-23.91365 22.58395,1.20508 42.32889,14.71969 57.99008,30.09877 15.16701,14.86485 27.66436,32.21878 38.75835,50.26149 h 80.07237 C 473.7778,397.7988 430.37877,373.03708 380.3021,347.76716 c -17.65609,-8.03605 -36.21864,-14.78892 -55.55419,-17.19166 -8.05731,-0.83406 -16.17339,-0.96291 -24.26523,-0.72778 z"
       sodipodi:nodetypes="ccccccccccccccc" /></g></svg>
