<?xml version="1.0" encoding="UTF-8" standalone="no"?>
<!-- Created with Inkscape (http://www.inkscape.org/) -->

<svg
   width="480"
   height="80"
   viewBox="0 0 480 80"
   version="1.1"
   id="svg1"
   xml:space="preserve"
   inkscape:version="1.4.3 (0d15f75, 2025-12-25)"
   sodipodi:docname="logo.svg"
   xmlns:inkscape="http://www.inkscape.org/namespaces/inkscape"
   xmlns:sodipodi="http://sodipodi.sourceforge.net/DTD/sodipodi-0.dtd"
   xmlns="http://www.w3.org/2000/svg"
   xmlns:svg="http://www.w3.org/2000/svg"><sodipodi:namedview
     id="namedview1"
     pagecolor="#505050"
     bordercolor="#ffffff"
     borderopacity="1"
     inkscape:showpageshadow="0"
     inkscape:pageopacity="0"
     inkscape:pagecheckerboard="1"
     inkscape:deskcolor="#505050"
     inkscape:document-units="mm"
     inkscape:zoom="2.0792509"
     inkscape:cx="70.939011"
     inkscape:cy="119.5142"
     inkscape:window-width="5120"
     inkscape:window-height="1369"
     inkscape:window-x="-8"
     inkscape:window-y="-8"
     inkscape:window-maximized="1"
     inkscape:current-layer="g18" /><defs
     id="defs1" /><g
     inkscape:label="Layer 1"
     inkscape:groupmode="layer"
     id="layer1"><g
       id="g18"
       transform="matrix(2.5118808,0,0,2.5118808,-53.327459,-90.774751)"><path
         style="fill:#ffffff;fill-opacity:0.460594;stroke-width:0.37888"
         d="m 41.94459,58.541894 c -1.176369,0.01764 -2.359578,0.399819 -3.367292,1.051296 -1.448726,0.936843 -2.47593,2.439931 -4.072532,3.16288 -0.76628,0.352073 -1.605035,0.556666 -2.448642,0.58023 -0.492285,0.880278 -0.984562,1.760556 -1.476847,2.640825 1.455996,0.08228 2.944867,0.139191 4.396556,-0.07556 1.147729,-0.194368 2.178917,-0.81887 3.052338,-1.549142 0.720755,-0.592271 1.360933,-1.272219 2.005991,-1.942882 0.917021,-0.901685 2.1547,-1.595849 3.476178,-1.511934 1.427866,0.07619 2.676234,0.930648 3.66641,1.902989 0.958929,0.939824 1.749069,2.037022 2.450486,3.177768 h 5.062555 C 52.901132,62.838087 50.15724,61.272535 46.991156,59.67485 45.874852,59.166772 44.70124,58.739825 43.478754,58.587912 c -0.509421,-0.05273 -1.022558,-0.06088 -1.534164,-0.04602 z"
         id="path5" /><path
         style="fill:#ffffff;fill-opacity:0.76868;stroke-width:0.37888"
         d="m 38.964458,40.781929 c -1.753304,2.745136 -3.423024,5.540659 -5.117239,8.321382 -3.390875,5.605765 -6.773468,11.216203 -10.124654,16.844234 1.580827,0.02131 3.16185,0.02149 4.742793,0.02829 2.735359,-4.775068 5.563014,-9.499113 8.387437,-14.222155 0.689492,-1.152949 1.383979,-2.30271 2.078296,-3.45282 0.397071,0.427448 0.647591,0.965734 0.969082,1.44852 1.124093,1.835913 3.272185,4.57215 4.378668,6.418753 2.131064,0.32551 4.422735,1.75197 6.22528,2.931813 -2.643699,-4.573071 -6.210481,-9.873111 -9.02348,-14.340127 -0.833141,-1.350691 -1.640301,-2.715851 -2.442536,-4.085567 -0.02453,0.0359 -0.04906,0.0718 -0.07368,0.107641 z"
         id="path10" /><path
         style="fill:#ffffff;fill-opacity:0.460594;stroke-width:0.494924"
         d="m 165.86654,46.85117 v 7.885921 7.889997 h 10.96285 v -2.671432 c -2.62168,-0.02308 -5.24203,-0.04849 -7.86351,-0.07132 a 0.19799887,0.19799887 0 0 1 -0.19561,-0.197657 c 0,-1.182782 1e-5,-2.364869 0,-3.547647 a 0.19799887,0.19799887 0 0 1 0.19561,-0.197657 c 2.41399,-0.03037 4.82435,-0.04213 7.23387,-0.101889 0.0562,-0.839507 0.0941,-1.677419 0.0591,-2.508416 -0.0289,-0.0044 -0.0693,-0.0072 -0.1243,-0.0041 -0.12451,0.007 -0.28144,0.03972 -0.45645,0.0041 l 0.0387,0.0041 h -6.81409 a 0.19799887,0.19799887 0 0 1 -0.19766,-0.197658 V 49.72028 a 0.19799887,0.19799887 0 0 1 0.19766,-0.197657 c 2.55087,-0.0094 5.09936,0.02375 7.64139,-0.05501 0.12101,-0.01366 0.23329,-0.0082 0.29343,-0.01834 a 0.19799887,0.19799887 0 0 1 -0.008,-0.05298 v -2.545094 z"
         id="path18" /><path
         style="fill:#ffffff;fill-opacity:0.460594;stroke-width:0.494924"
         d="m 150.25364,46.85117 v 1.332659 1.338773 c 1.43742,0.02387 2.87468,0.04838 4.31178,0.07132 a 0.19799887,0.19799887 0 0 1 0.19359,0.197657 c 0.0199,4.272829 0.0419,8.544369 0.0631,12.81717 0.94468,0.01899 1.89185,0.01553 2.84056,0.01631 V 49.720266 a 0.19799887,0.19799887 0 0 1 0.19766,-0.197657 h 4.37292 v -2.671433 z"
         id="path17" /><path
         style="fill:#ffffff;fill-opacity:0.76868;stroke-width:0.494924"
         d="m 114.52043,46.85117 c 0.009,0.02433 0.0174,0.04906 0.0265,0.07335 1.96811,5.230815 3.93413,10.461685 5.87674,15.702561 h 3.55784 c 1.95102,-5.284383 4.05542,-10.505472 6.04994,-15.76573 -0.16128,-0.0015 -0.32216,0.0014 -0.51961,-0.01022 h -2.7183 c -1.28352,3.464462 -2.52382,6.946824 -3.87368,10.3923 a 0.19799887,0.19799887 0 0 1 -0.0104,0.02446 c -0.0666,0.119907 -0.11937,0.302187 -0.20173,0.489049 -0.0823,0.186861 -0.20999,0.393128 -0.44626,0.4972 a 0.19799887,0.19799887 0 0 1 -0.11615,0.01426 c -0.23118,-0.04279 -0.36379,-0.234092 -0.42588,-0.389202 -0.0621,-0.155109 -0.0967,-0.300599 -0.13652,-0.370863 a 0.19799887,0.19799887 0 0 1 -0.0122,-0.02852 c -1.31503,-3.530355 -2.55643,-7.08512 -3.82681,-10.628673 z"
         id="path16" /><path
         style="fill:#ffffff;fill-opacity:0.76868;stroke-width:0.494924"
         d="m 99.353781,46.85117 v 7.887959 7.885921 h 2.840559 v -5.340826 a 0.19799887,0.19799887 0 0 1 0.19766,-0.197657 c 0.85721,0.0035 1.71638,0.0075 2.57362,0.01223 a 0.19799887,0.19799887 0 0 1 0.16913,0.09781 c 1.0731,1.825312 2.20041,3.620204 3.31127,5.428448 1.10668,-0.0082 2.20519,0.01022 3.29702,-0.03464 -1.11965,-1.696753 -2.29216,-3.371488 -3.33165,-5.135019 a 0.19799887,0.19799887 0 0 1 -0.0203,-0.05298 c -0.0637,-0.261804 0.077,-0.492172 0.23434,-0.627614 0.1573,-0.135441 0.34182,-0.223067 0.4544,-0.29343 a 0.19799887,0.19799887 0 0 1 0.0163,-0.01022 c 0.81128,-0.395784 1.55597,-0.955073 1.97657,-1.736126 a 0.19799887,0.19799887 0 0 1 0.006,-0.01022 c 0.2805,-0.45846 0.50644,-0.963463 0.69893,-1.469186 -0.0104,-0.894636 0.0194,-1.789711 -0.0184,-2.661245 -0.45638,-0.989878 -0.86986,-2.022928 -1.73001,-2.622527 a 0.19799887,0.19799887 0 0 1 -0.002,-0.0021 c -0.71455,-0.519328 -1.45879,-0.915701 -2.32299,-0.996438 a 0.19799887,0.19799887 0 0 1 -0.002,0 c -1.64882,-0.165546 -3.37115,-0.103809 -5.07185,-0.122262 z m 3.040259,2.649017 c 0.0747,0.0021 0.2255,0.0062 0.22618,0.0062 a 0.19799887,0.19799887 0 0 1 0.004,-0.0021 c 1.43029,0.04673 2.88076,0.0052 4.33013,0.132452 0.72077,0.05861 1.23654,0.618295 1.56699,1.147228 a 0.19799887,0.19799887 0 0 1 0.008,0.01426 c 0.35312,0.686824 0.34098,1.503851 0.1243,2.206835 a 0.19799887,0.19799887 0 0 1 -0.004,0.0081 c -0.32142,0.883351 -1.24725,1.383919 -2.13959,1.369338 -1.37874,0.06269 -2.7516,0.02065 -4.11616,0.0326 a 0.19799887,0.19799887 0 0 1 -0.1997,-0.197657 V 49.69781 a 0.19799887,0.19799887 0 0 1 0.1997,-0.197657 z"
         id="path15" /><path
         style="fill:#ffffff;fill-opacity:0.76868;stroke-width:0.494924"
         d="m 81.580911,46.85117 -0.0062,0.829346 c 0.01054,3.096435 -0.02357,6.190796 0.05501,9.279713 0.02332,0.927857 0.136519,1.896437 0.572595,2.710148 a 0.19799887,0.19799887 0 0 1 0.0041,0.01022 c 0.441431,0.950633 1.239275,1.752926 2.139591,2.247589 a 0.19799887,0.19799887 0 0 1 0.0041,0.0021 c 0.932859,0.55103 2.018859,0.928532 3.111577,0.91493 a 0.19799887,0.19799887 0 0 1 0.0041,0 c 1.398617,0.01213 2.833593,-0.01931 4.050959,-0.674482 a 0.19799887,0.19799887 0 0 1 0.0021,0 c 1.317337,-0.6922 2.371411,-1.967643 2.846675,-3.405005 l 0.0021,-0.0041 c 0.128558,-0.443291 0.320232,-0.86404 0.271015,-1.253189 a 0.19799887,0.19799887 0 0 1 -0.0021,-0.02649 c 0.02629,-3.543709 0.05261,-7.087048 0.07947,-10.630711 h -2.964862 c -0.02573,3.548375 -0.0509,7.096568 -0.07743,10.644975 a 0.19799887,0.19799887 0 0 1 -0.02241,0.08966 c -0.32703,0.632935 -0.630324,1.45778 -1.418243,1.833936 -0.936192,0.585616 -2.083112,0.609696 -3.101388,0.464596 a 0.19799887,0.19799887 0 0 1 -0.0021,0 c -1.19552,-0.182664 -2.159305,-1.147667 -2.498228,-2.270004 a 0.19799887,0.19799887 0 0 1 -0.0062,-0.02649 C 84.443058,56.437333 84.49983,55.282793 84.468233,54.158479 a 0.19799887,0.19799887 0 0 1 0,-0.0041 c -0.02529,-2.435449 -0.03884,-4.868544 -0.05706,-7.303138 z"
         id="path14" /><path
         style="fill:#ffffff;fill-opacity:0.460594;stroke-width:0.494924"
         d="m 205.21463,46.849083 c -0.5109,0.01071 -1.0214,0.02208 -1.53235,0.0326 -0.51588,0.0108 -1.0314,0.02042 -1.54662,0.03057 -2.02174,5.057381 -4.06898,10.101939 -6.05198,15.172758 h 0.002 c -0.0685,0.179726 -0.13497,0.359501 -0.20173,0.539992 h 3.09528 c 0.3395,-0.954297 0.69052,-1.905022 1.06979,-2.846675 a 0.19799887,0.19799887 0 0 1 0.1834,-0.1243 h 6.8528 a 0.19799887,0.19799887 0 0 1 0.18544,0.130413 c 0.34598,0.947342 0.69137,1.893513 1.03719,2.840562 1.0504,-0.0099 2.09353,0.0172 3.1238,-0.04075 -1.99962,-5.272845 -4.11787,-10.498517 -6.21704,-15.735164 z m -1.55068,4.246628 c 0.22668,0.05643 0.37344,0.262909 0.30158,0.199695 0.33614,0.533655 0.49746,1.135816 0.7295,1.656655 a 0.19799887,0.19799887 0 0 1 0.004,0.01223 c 0.43069,1.145036 0.91393,2.286129 1.26338,3.480401 a 0.19799887,0.19799887 0 0 1 0.008,0.0326 c 0.0144,0.129804 -0.0242,0.262264 -0.0978,0.352523 -0.0737,0.09026 -0.16742,0.138849 -0.25878,0.171167 -0.18274,0.06464 -0.37345,0.06988 -0.4911,0.07947 a 0.19799887,0.19799887 0 0 1 -0.006,0 c -1.2722,0.0681 -2.53785,0.02468 -3.79421,0.03668 a 0.19799887,0.19799887 0 0 1 -0.18746,-0.266939 c 0.66778,-1.767503 1.28501,-3.563589 2.0377,-5.312299 a 0.19799887,0.19799887 0 0 1 0,-0.0021 c 0.0442,-0.101857 0.11274,-0.230851 0.2323,-0.336221 0.0598,-0.05269 0.14163,-0.108079 0.2588,-0.103924 z"
         id="path13" /><path
         style="fill:#ffffff;fill-opacity:0.460594;stroke-width:0.494924"
         d="m 187.32562,46.600482 c -0.79636,0.01344 -1.58534,0.155355 -2.29242,0.499239 a 0.19799887,0.19799887 0 0 1 -0.0122,0.0062 c -2.02347,0.794947 -3.6386,2.487896 -4.46869,4.491105 a 0.19799887,0.19799887 0 0 1 -0.002,0.0062 c -0.33999,0.759675 -0.54677,1.574036 -0.51759,2.396342 a 0.19799887,0.19799887 0 0 1 0,0.0021 c 0.0176,1.022914 -0.0721,2.036221 0.13449,2.989315 2.9e-4,0.0014 -2.8e-4,0.0027 0,0.0041 0.38474,1.273762 1.02383,2.472618 1.91952,3.421308 1.61152,1.680042 3.98566,2.6262 6.31078,2.447285 2.04813,-0.141533 4.02842,-1.121658 5.36528,-2.681622 a 0.19799887,0.19799887 0 0 1 0.002,-0.0021 c 0.0981,-0.111481 0.17747,-0.207628 0.25676,-0.305655 -0.60661,-0.558439 -1.33583,-1.003117 -2.02955,-1.524205 l -0.002,-0.0021 c -0.11737,-0.08549 -0.22388,-0.171667 -0.26286,-0.187469 0.002,-8.83e-4 -0.008,1.51e-4 -0.0346,0.05298 a 0.19799887,0.19799887 0 0 1 -0.0325,0.0489 c -0.74018,0.781174 -1.66532,1.466723 -2.77536,1.681107 -1.30489,0.305607 -2.70283,-0.04092 -3.78606,-0.782479 a 0.19799887,0.19799887 0 0 1 -0.006,-0.0041 c -1.04119,-0.769925 -1.7452,-1.924025 -2.04993,-3.164558 a 0.19799887,0.19799887 0 0 1 -0.002,-0.0062 c -0.18331,-0.884446 -0.11049,-1.792116 0.0346,-2.651055 a 0.19799887,0.19799887 0 0 1 0.004,-0.01426 c 0.24261,-0.983964 0.78595,-1.883375 1.49364,-2.591962 a 0.19799887,0.19799887 0 0 1 0.008,-0.0062 c 0.77125,-0.702369 1.76462,-1.306959 2.88947,-1.263377 0.84963,-0.01517 1.8053,-0.06204 2.6266,0.438107 0.61995,0.326995 1.15124,0.809943 1.61386,1.271529 0.77965,-0.562492 1.56528,-1.111682 2.2965,-1.713712 -0.003,-0.0042 -0.002,-0.0037 -0.006,-0.0081 -0.0465,-0.05493 -0.13166,-0.11412 -0.19766,-0.238412 l 0.0224,0.0326 c -0.73811,-0.887487 -1.64881,-1.584601 -2.69181,-2.047894 a 0.19799887,0.19799887 0 0 1 -0.008,-0.0041 c -1.16337,-0.571549 -2.48421,-0.631088 -3.79829,-0.588897 a 0.19799887,0.19799887 0 0 1 -0.002,0 z"
         id="path12" /><path
         style="fill:#ffffff;fill-opacity:0.76868;stroke-width:0.494924"
         d="m 70.95835,46.596414 c -1.04035,0.05811 -2.059302,0.431088 -2.993391,0.923081 -1.09607,0.616936 -2.032589,1.578603 -2.803883,2.618451 -8.53e-4,0.0013 -0.0011,0.0028 -0.0021,0.0041 -5.68e-4,7.67e-4 -0.0015,0.0013 -0.0021,0.0021 -0.564469,0.824646 -0.920622,1.810822 -1.165567,2.769242 -3.93e-4,0.002 3.9e-4,0.0042 0,0.0062 -3.67e-4,0.0015 -0.0017,0.0026 -0.0021,0.0041 -0.303108,1.537554 -0.185896,3.17893 0.29343,4.694875 0.403093,1.202707 1.130584,2.254287 2.037705,3.166594 1.067789,0.959878 2.388892,1.657514 3.792171,1.956198 0.0014,2.15e-4 0.0027,-2.13e-4 0.0041,0 1.066298,0.169847 2.157013,0.13214 3.225689,-0.01426 0.0015,-2.94e-4 0.0026,-0.0018 0.0041,-0.0021 1.050317,-0.207923 2.026193,-0.6294 2.909844,-1.228736 l 0.0041,-0.0041 c 0.603023,-0.486492 1.169672,-1.017358 1.666843,-1.601636 -0.751369,-0.594336 -1.538861,-1.150171 -2.322984,-1.719825 -0.802905,0.818758 -1.766534,1.634636 -2.99339,1.799294 a 0.19799887,0.19799887 0 0 1 -0.01631,0.0021 c -0.734775,0.04075 -1.518658,0.106633 -2.284268,-0.09373 a 0.19799887,0.19799887 0 0 1 -0.01631,-0.0062 c -1.137667,-0.411996 -2.151918,-1.203502 -2.765166,-2.26389 v -0.0021 c -9.56e-4,-0.0017 -0.0031,-0.0024 -0.0041,-0.0041 -0.456488,-0.717222 -0.708083,-1.559945 -0.676518,-2.418756 v -0.0062 c 2.6e-5,-6.82e-4 -2.7e-5,-0.0014 0,-0.0021 -0.005,-0.908754 -0.07271,-1.91505 0.411616,-2.812033 0.366172,-0.770529 0.86487,-1.514465 1.605713,-2.015292 0.461563,-0.335054 0.966424,-0.629975 1.469186,-0.874175 a 0.19799887,0.19799887 0 0 1 0.0917,-0.02038 c 0.885512,0.03174 1.824168,-0.08762 2.761092,0.122262 a 0.19799887,0.19799887 0 0 1 0.01834,0.0041 c 0.94792,0.304239 1.714964,0.940524 2.39838,1.599599 0.752349,-0.568671 1.513059,-1.114915 2.212949,-1.719823 -0.584847,-0.78794 -1.373307,-1.471196 -2.233326,-1.960274 a 0.19799887,0.19799887 0 0 1 -0.0041,-0.0021 c -0.858343,-0.517316 -1.833843,-0.828059 -2.83241,-0.853799 a 0.19799887,0.19799887 0 0 1 -0.0062,0 c -0.580237,-0.03461 -1.189129,-0.06126 -1.776879,-0.04687 z"
         id="path11" /><path
         style="fill:#ffffff;fill-opacity:0.76868;stroke-width:0.494924"
         d="m 140.11401,46.588276 c -0.29719,-0.01218 -0.59605,-0.0061 -0.90067,0.0021 -1.66966,0.04645 -3.33857,0.615943 -4.59299,1.719824 a 0.19799887,0.19799887 0 0 1 -0.002,0.0021 c -0.97119,0.830371 -1.81134,1.831244 -2.27,3.013767 a 0.19799887,0.19799887 0 0 1 -0.004,0.0062 c -0.6275,1.45882 -0.92845,3.137555 -0.62557,4.664308 a 0.19799887,0.19799887 0 0 1 0.002,0.0041 c 0.31301,1.719851 1.00826,3.369474 2.24759,4.590952 a 0.19799887,0.19799887 0 0 1 0.002,0 c 1.17736,1.177304 2.73694,2.003445 4.38718,2.212948 6.6e-4,4.6e-5 0.001,-4.5e-5 0.002,0 0.83688,0.05781 1.78143,0.05276 2.61845,-0.03872 l -0.002,0.0021 c 1.13805,-0.143902 2.2266,-0.619149 3.20939,-1.230773 1.61774,-1.098899 2.74927,-2.842905 3.23587,-4.733592 0.20241,-1.020524 0.22327,-2.055688 0.1671,-3.109539 v -0.0041 c -0.058,-0.797995 -0.33871,-1.700823 -0.70098,-2.483963 a 0.19799887,0.19799887 0 0 1 -0.004,-0.01223 c -0.38336,-0.977527 -1.00283,-1.851007 -1.79099,-2.545281 -1.34595,-1.186497 -3.1729,-2.045101 -4.972,-2.06012 a 0.19799887,0.19799887 0 0 1 -0.006,0 z m 0.14671,2.608294 -0.004,0.0041 a 0.19799887,0.19799887 0 0 1 0.0163,-0.0041 c 0.58668,0.128636 1.03001,0.492433 1.4916,0.658178 a 0.19799887,0.19799887 0 0 1 0.0184,0.0062 c 1.69287,0.811753 2.77632,2.605898 2.85075,4.456463 0.12859,1.813321 -0.54814,3.774314 -2.09884,4.855853 v -0.0021 c -1.0149,0.717376 -2.28434,0.912008 -3.46817,0.876213 a 0.19799887,0.19799887 0 0 1 -0.0122,0 c -0.9642,-0.08796 -1.85279,-0.537852 -2.60012,-1.094248 a 0.19799887,0.19799887 0 0 1 -0.0104,-0.0081 c -1.01617,-0.871893 -1.70051,-2.132493 -1.79726,-3.48244 v -0.0062 c -0.16383,-1.658351 0.29078,-3.447351 1.51401,-4.658195 a 0.19799887,0.19799887 0 0 1 0.004,-0.0041 c 0.79483,-0.740012 1.81336,-1.354355 2.9669,-1.369339 0.22157,-0.03531 0.42179,-0.0017 0.59297,0.02038 0.13017,-0.172287 0.32808,-0.280313 0.53591,-0.2486 z"
         id="path1-4" /></g></g></svg>
